<svg id="Capa_1" data-name="Capa 1" xmlns="http://www.w3.org/2000/svg" viewBox="0 0 792 612"><defs><style>.cls-1,.cls-16{fill:#7577aa;}.cls-2,.cls-4,.cls-9{fill:#3f7c6e;}.cls-3{fill:#fff;}.cls-4{font-size:32px;}.cls-16,.cls-4,.cls-9{font-family:Montserrat-Bold, Montserrat;font-weight:700;}.cls-5{letter-spacing:-0.01em;}.cls-6{letter-spacing:0em;}.cls-7{letter-spacing:0em;}.cls-8{letter-spacing:-0.01em;}.cls-16,.cls-9{font-size:24px;}.cls-10{letter-spacing:-0.02em;}.cls-11,.cls-12,.cls-18,.cls-19{font-size:21px;font-family:Montserrat-Medium, Montserrat;font-weight:500;}.cls-12,.cls-20{letter-spacing:0em;}.cls-13{letter-spacing:-0.01em;}.cls-14{letter-spacing:-0.01em;}.cls-15{letter-spacing:-0.02em;}.cls-17{letter-spacing:-0.03em;}.cls-18{letter-spacing:-0.01em;}.cls-19{letter-spacing:-0.01em;}.cls-21{letter-spacing:0em;}.cls-22,.cls-23{fill:none;stroke-linecap:round;stroke-linejoin:round;stroke-width:2px;}.cls-22{stroke:#3f7c6e;}.cls-23{stroke:#7577aa;}</style></defs><path class="cls-1" d="M375.93,340.51l85.61-204.84C524.89,162.14,569.71,212.23,589,278.13Z"/><path class="cls-2" d="M375.93,340.51,589,278.13c34.46,117.67-33,241-150.68,275.45s-241-33-275.46-150.68,33-241,150.69-275.46c51.77-15.16,98.21-12.58,148,8.23Z"/><circle class="cls-3" cx="375.93" cy="339.4" r="140.68"/><text class="cls-4" transform="translate(289.48 312.18)">AMENAZA <tspan x="29.23" y="38.4">ÁREAS </tspan><tspan class="cls-5" x="-23.9" y="76.8">P</tspan><tspan x="-0.8" y="76.8">R</tspan><tspan class="cls-5" x="22.72" y="76.8">O</tspan><tspan x="49.41" y="76.8">T</tspan><tspan class="cls-6" x="69.18" y="76.8">E</tspan><tspan class="cls-7" x="90.59" y="76.8">GI</tspan><tspan class="cls-8" x="125.76" y="76.8">D</tspan><tspan x="151.87" y="76.8">AS</tspan></text><text class="cls-9" transform="translate(49.29 109.66)">8<tspan class="cls-10" x="15.84" y="0">6</tspan><tspan x="30.65" y="0">%</tspan><tspan class="cls-11" x="51.7" y="0" xml:space="preserve"> a</tspan><tspan class="cls-12" x="69.9" y="0">m</tspan><tspan class="cls-11" x="92.16" y="0">enaza</tspan><tspan class="cls-11"><tspan x="0" y="25.2">por pe</tspan><tspan class="cls-13" x="69.09" y="25.2">r</tspan><tspan class="cls-14" x="77.55" y="25.2">r</tspan><tspan x="85.91" y="25.2">os </tspan><tspan x="0" y="50.4">y ga</tspan><tspan class="cls-15" x="44.44" y="50.4">t</tspan><tspan x="52.75" y="50.4">os </tspan></tspan></text><text class="cls-16" transform="translate(616.05 162.5)">1<tspan class="cls-17" x="9.41" y="0">4</tspan><tspan x="25.22" y="0">%</tspan><tspan class="cls-11" x="46.27" y="0" xml:space="preserve"> á</tspan><tspan class="cls-18" x="64.48" y="0">r</tspan><tspan class="cls-19" x="72.84" y="0">e</tspan><tspan class="cls-11" x="85.37" y="0">as </tspan><tspan class="cls-12" x="114.1" y="0">n</tspan><tspan class="cls-11" x="128.47" y="0">o </tspan><tspan class="cls-11"><tspan x="0" y="25.2">a</tspan><tspan class="cls-20" x="12.56" y="25.2">m</tspan><tspan x="34.82" y="25.2">enaz</tspan><tspan class="cls-21" x="85.47" y="25.2">a</tspan><tspan x="98.09" y="25.2">das</tspan></tspan></text><polyline class="cls-22" points="143.81 153.49 163.6 153.49 198.67 189.29"/><polyline class="cls-23" points="606.21 153.49 586.43 153.49 551.36 189.29"/></svg>